<svg id="Layer_1" data-name="Layer 1" xmlns="http://www.w3.org/2000/svg" xmlns:xlink="http://www.w3.org/1999/xlink" viewBox="0 0 2177.77 2177.77" class="w-32 h-32">
    <defs>
        <style>
            .cls-1 {
                fill: transparent;
            }


            .cls-1,
            .cls-2,
            .cls-3,
            .cls-4 {
                stroke-width: 0px;
            }

            .cls-2 {
                fill: url(#linear-gradient);
            }

            .cls-2,
            .cls-4 {
                fill-rule: evenodd;
            }

            .cls-3 {
                fill: url(#radial-gradient);
            }

            .cls-4 {
                fill: #006838;
            }
        </style>
        <linearGradient id="linear-gradient" x1="458.38" y1="1107.32" x2="1728.82" y2="1107.32" gradientUnits="userSpaceOnUse">
            <stop offset="0" stop-color="#009444" />
            <stop offset="1" stop-color="#8dc63f" />
        </linearGradient>
        <radialGradient id="radial-gradient" cx="1093.43" cy="1088.12" fx="1093.43" fy="1088.12" r="705.4" gradientUnits="userSpaceOnUse">
            <stop offset="0" stop-color="#fff" />
            <stop offset=".36" stop-color="#fcfcfc" />
            <stop offset=".61" stop-color="#f2f3f3" />
            <stop offset=".83" stop-color="#e3e4e5" />
            <stop offset="1" stop-color="#d1d3d4" />
        </radialGradient>
    </defs>
    <rect class="cls-1" x="-229.49" y="-150.74" width="6634.21" height="2540.94" />
    <path class="cls-2" d="m1728.82,964.92l-2.02,293.54c-.15,22.19-17.61,40.06-38.98,39.92l-376.71-2.6c-21.38-.15-38.83,17.72-38.98,39.92l-2.69,391.07c-.15,22.19-17.61,40.06-38.98,39.92l-282.75-1.95c-21.38-.15-38.58-18.26-38.43-40.45l2.69-391.07c.15-22.19-17.05-40.3-38.43-40.45l-376.71-2.6c-21.38-.15-38.58-18.26-38.43-40.45l2.02-293.54c.15-22.19,17.61-40.06,38.98-39.92l376.71,2.6c21.38.15,38.83-17.72,38.98-39.92l2.69-391.07c.15-22.19,17.61-40.06,38.98-39.92l282.75,1.95c21.38.15,38.58,18.26,38.43,40.45l-2.69,391.07c-.15,22.19,17.05,40.3,38.43,40.45l376.71,2.6c21.38.15,38.58,18.26,38.43,40.45Z" />
    <path class="cls-4" d="m1036.59,1018.72l280.85,1.93c-.46,66.66-43.31,124.72-107,156.38-3.24,1.61-6.4,3.13-9.47,4.58-1.89-6.76-4.86-13.54-9.02-20.23-9.6-15.41-25.94-28.38-40.5-38.92-17.4-12.6-35.64-24.04-53.14-36.52-16.25-11.59-32.76-24.54-45.74-39.79-6.13-7.21-12.03-16.95-15.97-27.43" />
    <path class="cls-4" d="m1076.62,1373.44l.57-82.85c.59-86.32-29.77-79.82-98.47-115.15-63.25-32.53-105.3-91.17-104.84-157.84l102.84.71c4.29,20.17,13.76,39.72,25.12,55.02,9.04,12.17,19.74,23.03,31.16,32.97,25.77,22.45,69.31,45.91,89.3,69.56,20.38,24.1,12.09,36.89-1.51,59.76-4.81,8.09-8.78,16.72-10.04,42.07-.2,4.12-.32,8.49-.35,13.13l-.53,76.89c-.91.34-1.83.65-2.74.93-9.42,2.94-20.11,5.07-30.5,4.8Z" />
    <path class="cls-4" d="m1076.12,1445.07l.21-30.45c7.25.31,14.54-.08,21.7-1.01l.21-.03.2-.04c3.74-.7,7.45-1.56,11.12-2.59l-.25,36.58c-5.16-.41-10.08-.64-14.54-.8-5.33-.19-11.81-.68-18.65-1.66Z" />
    <path class="cls-4" d="m1120.29,1275.14c11.13-2.94,24.77-8.53,33.95-14.22,32.92-20.42,50.69-57.95,28.4-93.74-23.09-37.08-98.39-66.88-138.42-113.92-12.98-15.25-21.56-34.79-23.1-53.02-2.43-28.92,13.1-48.09,40.58-54.23,10.88-2.43,32.73-1.22,31.51,12.48-.92,5.84.38,13.95,6.92,19.11,11.2,8,19.78,10.07,28.72,11.6,3.17.54,9.71,1.59,16.95,2.16,45.9,3.65,32.67-29.92,11.46-53.83-7.44-8.39-17.27-19.24-29.27-19.51-13.82-.32-13.54,7.95-32.52,4.89-34.83-5.05-72.74.38-95.53,26.51-27.46,31.48-12.07,86.69,10.72,117.38,48.78,65.71,151.84,93.1,132.81,147.13-7.1,20.17-24.75,27.02-23.15,61.21" />
    <path class="cls-4" d="m1118.54,1323.37c31.4-.09,30.63,39.96-9.2,52.39-84.38,26.33-106.19-55.53-40.83-78.45.35-19.2-.83-32.74-3.98-39.57-3.97,1.46-8.38,3.41-11.95,5.22-76.99,39.13-59.08,156.7,44.49,143.26,20.36-3.8,37.78-12.41,51-23.13,23.19-18.81,30.61-40.72,24.38-57.16-8.21-21.67-29.92-27.01-53.77-23.22l-.14,20.67Zm-79.5,25.61c1.69,6.33,4.58,11,8.88,12.33,4.33-6.21,11.76-12.62,20.53-18.41l.14-20.84c-12.91,8.02-23.63,17.53-29.56,26.92Z" />
    <path class="cls-4" d="m1094.5,1454.18c28.01.99,55.46,4.99,67.1,20.06-1.34,3.26-4.08,3.45-8.22.58-37.5-21.45-88.79,2.69-126.81-22.27-19.08-12.53-32.22-39.71-14.97-68.9,3.08,4.21,6.59,8.06,10.48,11.52-1.88,3.24-3.85,8.22-3.99,14.05-.88,36.91,51.27,44.07,76.41,44.96" />
    <path class="cls-4" d="m1107.11,1765.83l-33.2-.23c.53-96.89,1.06-193.79,1.59-290.68,4.57-.89,10.33-1.61,16.98-1.51,7.41.11,11.77.75,16.63,1.95-1.32,96.67-.68,193.8-2,290.47Z" />
    <path class="cls-3" d="m1239.17,1793.53h-291.48c-47.62,0-86.22-38.6-86.22-86.22v-387.21h-387.22c-47.62,0-86.22-38.6-86.22-86.22v-291.48c0-47.62,38.6-86.22,86.22-86.22h387.22v-387.22c0-47.62,38.6-86.22,86.22-86.22h291.48c47.62,0,86.22,38.6,86.22,86.22v387.22h387.22c47.62,0,86.22,38.6,86.22,86.22v291.49c0,47.62-38.6,86.22-86.22,86.22h-387.22v387.21c0,47.62-38.6,86.22-86.22,86.22Zm-252.9-88.44h214.33c20.08,0,36.36-16.28,36.36-36.36v-400.72c0-20.08,16.28-36.36,36.36-36.36h400.72c20.08,0,36.36-16.28,36.36-36.36v-214.33c0-20.08-16.28-36.36-36.36-36.36h-400.72c-20.08,0-36.36-16.28-36.36-36.36v-400.72c0-20.08-16.28-36.36-36.36-36.36h-214.33c-20.08,0-36.36,16.28-36.36,36.36v400.72c0,20.08-16.28,36.36-36.36,36.36h-400.72c-20.08,0-36.36,16.28-36.36,36.36v214.33c0,20.08,16.28,36.36,36.36,36.36h400.72c20.08,0,36.36,16.28,36.36,36.36v400.72c0,20.08,16.28,36.36,36.36,36.36Z" />
</svg>